<svg width="19" height="18" viewBox="0 0 19 18" fill="none" xmlns="http://www.w3.org/2000/svg">
<path d="M17.1867 8.15752L10.0494 1.65412C9.73615 1.36862 9.26374 1.36865 8.95059 1.65409L1.81334 8.15755C1.56239 8.38622 1.4795 8.73855 1.6021 9.05512C1.72473 9.37169 2.02331 9.57622 2.3628 9.57622H3.50274V16.0921C3.50274 16.3505 3.71221 16.56 3.97056 16.56H7.88264C8.14099 16.56 8.35046 16.3505 8.35046 16.0921V12.1359H10.6497V16.0922C10.6497 16.3505 10.8591 16.56 11.1175 16.56H15.0294C15.2877 16.56 15.4972 16.3505 15.4972 16.0922V9.57622H16.6373C16.9768 9.57622 17.2754 9.37165 17.398 9.05512C17.5205 8.73852 17.4376 8.38622 17.1867 8.15752Z" fill="#1082DB"/>
<path d="M15.375 2.37379H12.2333L15.8428 5.65585V2.84158C15.8428 2.58323 15.6334 2.37379 15.375 2.37379Z" fill="#1082DB"/>
</svg>
