<svg width="15" height="16" viewBox="0 0 15 16" fill="none" xmlns="http://www.w3.org/2000/svg">
<path d="M13.5818 11.3574C13.5589 11.3383 10.9636 9.48107 10.2595 9.60283C9.92103 9.66263 9.72733 9.89317 9.3395 10.3555C9.2771 10.4301 9.12673 10.6082 9.0106 10.7351C8.76548 10.6553 8.52638 10.558 8.29517 10.4439C7.10156 9.86284 6.13716 8.89844 5.55607 7.70483C5.44204 7.47361 5.34473 7.23453 5.26487 6.9894C5.39227 6.87283 5.5708 6.72247 5.64707 6.65833C6.10683 6.27267 6.33737 6.07897 6.39717 5.7401C6.5198 5.03853 4.66167 2.44113 4.6426 2.41773C4.55798 2.29772 4.44777 2.198 4.31993 2.12576C4.19208 2.05352 4.04979 2.01057 3.90333 2C3.1502 2 1 4.78893 1 5.2591C1 5.2864 1.03943 8.06147 4.46147 11.5424C7.93853 14.9606 10.7136 15 10.7409 15C11.2111 15 14 12.8498 14 12.0967C13.9894 11.9502 13.9464 11.8078 13.8741 11.68C13.8018 11.5521 13.702 11.4419 13.5818 11.3574ZM10.6932 14.1307C10.3145 14.0995 7.98577 13.7923 5.0742 10.9319C2.19903 8.0047 1.8996 5.66947 1.8697 5.30763C2.4377 4.41611 3.12368 3.60551 3.90897 2.89787C3.9263 2.9152 3.94927 2.9412 3.97873 2.975C4.58099 3.79713 5.0998 4.67725 5.52747 5.6023C5.38839 5.74221 5.24139 5.87402 5.0872 5.99707C4.84808 6.17926 4.62851 6.38577 4.432 6.61327L4.3267 6.7606L4.3579 6.9387C4.44961 7.33595 4.59006 7.72034 4.77607 8.08313C5.44248 9.45161 6.5483 10.5573 7.91687 11.2235C8.27959 11.4098 8.66399 11.5504 9.0613 11.6421L9.2394 11.6733L9.38673 11.568C9.6151 11.3706 9.82246 11.1502 10.0055 10.9102C10.1412 10.7481 10.3227 10.5319 10.3912 10.4708C11.3189 10.898 12.2012 11.4175 13.025 12.0213C13.061 12.0516 13.0861 12.075 13.103 12.0902C12.3955 12.8757 11.5849 13.5618 10.6932 14.1299V14.1307Z" fill="#0064B3"/>
</svg>
