<svg width="18" height="18" viewBox="0 0 18 18" fill="none" xmlns="http://www.w3.org/2000/svg">
<g clip-path="url(#clip0_51_180)">
<path d="M15.8907 2.76574H15.8653V1.40625C15.8653 1.16367 15.6685 0.966797 15.4259 0.966797C15.1833 0.966797 14.9864 1.16367 14.9864 1.40625V2.76574H14.9611C14.3311 2.76574 13.8185 3.27832 13.8185 3.90832V12.7477C13.8185 13.3777 14.3311 13.8902 14.9611 13.8902H14.9864V15.2497C14.9864 15.4923 15.1833 15.6892 15.4259 15.6892C15.6685 15.6892 15.8653 15.4923 15.8653 15.2497V13.8902H15.8907C16.5207 13.8902 17.0332 13.3777 17.0332 12.7477V3.90832C17.0332 3.27832 16.5207 2.76574 15.8907 2.76574Z" fill="#CFCFCF"/>
<path d="M11.6068 7.02774H11.5815V6.35379C11.5815 6.11121 11.3847 5.91434 11.1421 5.91434C10.8995 5.91434 10.7026 6.11121 10.7026 6.35379V7.02774H10.6773C10.0473 7.02774 9.53473 7.54031 9.53473 8.17031V14.7769C9.53473 15.4069 10.0473 15.9195 10.6773 15.9195H10.7026V16.5934C10.7026 16.836 10.8995 17.0329 11.1421 17.0329C11.3847 17.0329 11.5815 16.836 11.5815 16.5934V15.9195H11.6068C12.2368 15.9195 12.7494 15.4069 12.7494 14.7769V8.17031C12.7494 7.54031 12.2368 7.02774 11.6068 7.02774Z" fill="#CFCFCF"/>
<path d="M7.32302 5.57965H7.29771V4.66805C7.29771 4.42547 7.10084 4.22859 6.85826 4.22859C6.61568 4.22859 6.41881 4.42547 6.41881 4.66805V5.57965H6.39349C5.76349 5.57965 5.25092 6.09222 5.25092 6.72222V10.7705C5.25092 11.4005 5.76349 11.913 6.39349 11.913H6.41881V12.8246C6.41881 13.0672 6.61568 13.2641 6.85826 13.2641C7.10084 13.2641 7.29771 13.0672 7.29771 12.8246V11.913H7.32302C7.95302 11.913 8.4656 11.4005 8.4656 10.7705V6.72222C8.4656 6.09222 7.95302 5.57965 7.32302 5.57965Z" fill="#CFCFCF"/>
<path d="M3.03891 2.97211H3.01359V1.40625C3.01359 1.16367 2.81672 0.966797 2.57414 0.966797C2.33156 0.966797 2.13469 1.16367 2.13469 1.40625V2.97211H2.10937C1.47937 2.97211 0.966797 3.48469 0.966797 4.11469V12.2752C0.966797 12.9052 1.47937 13.4177 2.10937 13.4177H2.13469V14.9836C2.13469 15.2262 2.33156 15.423 2.57414 15.423C2.81672 15.423 3.01359 15.2262 3.01359 14.9836V13.4177H3.03891C3.66891 13.4177 4.18148 12.9052 4.18148 12.2752V4.11469C4.18148 3.48469 3.66891 2.97211 3.03891 2.97211Z" fill="#CFCFCF"/>
</g>
<defs>
<clipPath id="clip0_51_180">
<rect width="18" height="18" fill="white"/>
</clipPath>
</defs>
</svg>
