<svg width="15" height="16" viewBox="0 0 15 16" fill="none" xmlns="http://www.w3.org/2000/svg">
<path fill-rule="evenodd" clip-rule="evenodd" d="M7.88386 3.60468C6.71567 3.60468 5.76758 4.55277 5.76758 5.72095C5.76758 6.88914 6.71567 7.83723 7.88386 7.83723C9.05204 7.83723 10.0001 6.88914 10.0001 5.72095C10.0001 4.55277 9.05204 3.60468 7.88386 3.60468ZM7.88386 4.58142C8.51288 4.58142 9.02339 5.09193 9.02339 5.72095C9.02339 6.34998 8.51288 6.86049 7.88386 6.86049C7.25483 6.86049 6.74432 6.34998 6.74432 5.72095C6.74432 5.09193 7.25483 4.58142 7.88386 4.58142Z" fill="#0064B3"/>
<path fill-rule="evenodd" clip-rule="evenodd" d="M7.88372 1C5.18856 1 3 3.18856 3 5.88372C3 7.14763 3.47926 8.41479 4.14149 9.54781C5.09805 11.1835 6.42967 12.536 7.11535 13.1774C7.1173 13.1787 7.1186 13.18 7.11991 13.1813C7.55293 13.5759 8.21516 13.5759 8.64754 13.1806C8.64884 13.1793 8.65014 13.1787 8.65144 13.1774C9.33777 12.536 10.6694 11.1835 11.626 9.54781C12.2882 8.41479 12.7674 7.14763 12.7674 5.88372C12.7674 3.18856 10.5789 1 7.88372 1ZM7.88372 1.97674C10.0397 1.97674 11.7907 3.72772 11.7907 5.88372C11.7907 6.97963 11.357 8.07293 10.7827 9.05488C9.8854 10.5897 8.63386 11.8568 7.98791 12.4605C7.9293 12.5132 7.8414 12.5139 7.78149 12.4631C7.13293 11.8568 5.88205 10.589 4.98474 9.05488C4.41042 8.07293 3.97674 6.97963 3.97674 5.88372C3.97674 3.72772 5.72772 1.97674 7.88372 1.97674Z" fill="#0064B3"/>
<path fill-rule="evenodd" clip-rule="evenodd" d="M3.97665 15H11.7906C12.0602 15 12.279 14.7812 12.279 14.5116C12.279 14.242 12.0602 14.0233 11.7906 14.0233H3.97665C3.70707 14.0233 3.48828 14.242 3.48828 14.5116C3.48828 14.7812 3.70707 15 3.97665 15Z" fill="#0064B3"/>
</svg>
