<svg width="18" height="18" viewBox="0 0 18 18" fill="none" xmlns="http://www.w3.org/2000/svg">
<path d="M11.25 12.9375H6.75C6.43934 12.9375 6.1875 13.1893 6.1875 13.5V14.0625C6.1875 14.3732 6.43934 14.625 6.75 14.625H11.25C11.5607 14.625 11.8125 14.3732 11.8125 14.0625V13.5C11.8125 13.1893 11.5607 12.9375 11.25 12.9375Z" fill="#CFCFCF"/>
<path d="M8.71874 6.75C8.49496 6.75 8.28035 6.66111 8.12212 6.50287C7.96389 6.34464 7.87499 6.13003 7.87499 5.90625C7.87499 5.68247 7.96389 5.46786 8.12212 5.30963C8.28035 5.15139 8.49496 5.0625 8.71874 5.0625C8.81477 5.06341 8.90992 5.08092 8.99999 5.11425V3.375C7.95598 3.37539 6.94459 3.73877 6.13905 4.40289C5.33352 5.06702 4.78397 5.99058 4.58453 7.01536C4.38509 8.04014 4.54818 9.10238 5.04585 10.0201C5.54353 10.9379 6.34482 11.654 7.31249 12.0459V12.5156H7.73437V12.0459C7.73428 11.9618 7.70906 11.8797 7.66196 11.81C7.61485 11.7404 7.548 11.6864 7.46999 11.655C6.78278 11.3788 6.18419 10.9199 5.73902 10.328C5.29384 9.73613 5.01905 9.03373 4.94437 8.29688V7.875H6.23812C6.20517 7.96513 6.18804 8.06028 6.18749 8.15625C6.18749 8.38003 6.27639 8.59464 6.43462 8.75287C6.59285 8.91111 6.80746 9 7.03124 9C7.25502 9 7.46963 8.91111 7.62786 8.75287C7.7861 8.59464 7.87499 8.38003 7.87499 8.15625C7.87408 8.06022 7.85657 7.96507 7.82324 7.875H8.99999V6.69825C8.90992 6.73158 8.81477 6.74909 8.71874 6.75Z" fill="#CFCFCF"/>
<path d="M11.8125 7.59375C11.8135 7.47031 11.7873 7.34815 11.7359 7.23591C11.6845 7.12367 11.6091 7.02408 11.515 6.94416C11.421 6.86423 11.3105 6.80593 11.1914 6.77336C11.0723 6.74078 10.9476 6.73473 10.8259 6.75564C10.7042 6.77654 10.5886 6.82389 10.4873 6.89434C10.3859 6.96479 10.3012 7.05663 10.2392 7.16337C10.1772 7.27012 10.1394 7.38917 10.1284 7.51212C10.1174 7.63508 10.1335 7.75895 10.1756 7.875H9V9.05063C9.12744 9.00437 9.26416 8.98951 9.39856 9.00729C9.53297 9.02508 9.66111 9.07499 9.77213 9.15281C9.88316 9.23062 9.97379 9.33404 10.0364 9.45432C10.0989 9.57459 10.1316 9.70817 10.1316 9.84375C10.1316 9.97933 10.0989 10.1129 10.0364 10.2332C9.97379 10.3535 9.88316 10.4569 9.77213 10.5347C9.66111 10.6125 9.53297 10.6624 9.39856 10.6802C9.26416 10.698 9.12744 10.6831 9 10.6369V12.5156H10.6875V12.0459C11.5181 11.7094 12.2294 11.1328 12.7304 10.3898C13.2314 9.64675 13.4994 8.77115 13.5 7.875H11.7619C11.7946 7.78481 11.8117 7.6897 11.8125 7.59375Z" fill="#CFCFCF"/>
<path d="M10.9688 4.5C11.0648 4.49909 11.1599 4.48158 11.25 4.44825V5.625H12.4267C12.3934 5.53493 12.3759 5.43978 12.375 5.34375C12.375 5.11997 12.4639 4.90536 12.6221 4.74713C12.7804 4.58889 12.995 4.5 13.2188 4.5C13.4425 4.5 13.6571 4.58889 13.8154 4.74713C13.9736 4.90536 14.0625 5.11997 14.0625 5.34375C14.0616 5.43978 14.0441 5.53493 14.0108 5.625H15.75C15.75 4.43153 15.2759 3.28693 14.432 2.44302C13.5881 1.59911 12.4435 1.125 11.25 1.125V2.86425C11.1599 2.83092 11.0648 2.81341 10.9688 2.8125C10.745 2.8125 10.5304 2.90139 10.3721 3.05963C10.2139 3.21786 10.125 3.43247 10.125 3.65625C10.125 3.88003 10.2139 4.09464 10.3721 4.25287C10.5304 4.41111 10.745 4.5 10.9688 4.5Z" fill="#CFCFCF"/>
<path d="M9 2.67188C9.05594 2.67188 9.1096 2.64965 9.14916 2.61009C9.18871 2.57053 9.21094 2.51688 9.21094 2.46094V1.33594C9.21094 1.27999 9.18871 1.22634 9.14916 1.18678C9.1096 1.14722 9.05594 1.125 9 1.125C8.94406 1.125 8.8904 1.14722 8.85084 1.18678C8.81129 1.22634 8.78906 1.27999 8.78906 1.33594V2.46094C8.78906 2.51688 8.81129 2.57053 8.85084 2.61009C8.8904 2.64965 8.94406 2.67188 9 2.67188Z" fill="#CFCFCF"/>
<path d="M6.39843 3.36909C6.44688 3.34109 6.48224 3.295 6.49674 3.24095C6.51125 3.1869 6.5037 3.12931 6.47578 3.08081L5.91328 2.10656C5.89943 2.08256 5.88098 2.06151 5.859 2.04463C5.83702 2.02775 5.81192 2.01537 5.78515 2.00819C5.73109 1.99368 5.67348 2.00125 5.625 2.02922C5.57651 2.05719 5.54112 2.10328 5.52662 2.15734C5.51211 2.2114 5.51968 2.26902 5.54765 2.3175L6.11015 3.29175C6.13815 3.3402 6.18424 3.37556 6.23829 3.39006C6.29234 3.40456 6.34994 3.39702 6.39843 3.36909Z" fill="#CFCFCF"/>
<path d="M4.49409 5.27343C4.52202 5.22494 4.52956 5.16734 4.51506 5.11329C4.50056 5.05924 4.4652 5.01315 4.41675 4.98515L3.4425 4.42265C3.39402 4.39468 3.3364 4.38711 3.28234 4.40162C3.22828 4.41612 3.18219 4.45151 3.15422 4.5C3.12625 4.54848 3.11868 4.60609 3.13319 4.66015C3.14769 4.71422 3.18308 4.7603 3.23156 4.78828L4.20581 5.35078C4.25431 5.3787 4.3119 5.38625 4.36595 5.37174C4.42 5.35724 4.46609 5.32188 4.49409 5.27343Z" fill="#CFCFCF"/>
<path d="M3.79688 7.875C3.79688 7.81906 3.77465 7.7654 3.73509 7.72584C3.69553 7.68629 3.64188 7.66406 3.58594 7.66406H2.46094C2.40499 7.66406 2.35134 7.68629 2.31178 7.72584C2.27222 7.7654 2.25 7.81906 2.25 7.875C2.25 7.93094 2.27222 7.9846 2.31178 8.02416C2.35134 8.06371 2.40499 8.08594 2.46094 8.08594H3.58594C3.64188 8.08594 3.69553 8.06371 3.73509 8.02416C3.77465 7.9846 3.79688 7.93094 3.79688 7.875Z" fill="#CFCFCF"/>
<path d="M4.49409 10.4766C4.46609 10.4281 4.42 10.3927 4.36595 10.3782C4.3119 10.3637 4.25431 10.3713 4.20581 10.3992L3.23156 10.9617C3.18308 10.9897 3.14769 11.0358 3.13319 11.0898C3.11868 11.1439 3.12625 11.2015 3.15422 11.25C3.18219 11.2985 3.22828 11.3339 3.28234 11.3484C3.3364 11.3629 3.39402 11.3553 3.4425 11.3273L4.41675 10.7648C4.4652 10.7368 4.50056 10.6908 4.51506 10.6367C4.52956 10.5827 4.52202 10.5251 4.49409 10.4766Z" fill="#CFCFCF"/>
<path d="M13.5059 10.4766C13.478 10.5251 13.4704 10.5827 13.4849 10.6367C13.4994 10.6908 13.5348 10.7368 13.5832 10.7648L14.5575 11.3273C14.606 11.3553 14.6636 11.3629 14.7177 11.3484C14.7717 11.3339 14.8178 11.2985 14.8458 11.25C14.8738 11.2015 14.8813 11.1439 14.8668 11.0898C14.8523 11.0358 14.8169 10.9897 14.7684 10.9617L13.7942 10.3992C13.7457 10.3713 13.6881 10.3637 13.634 10.3782C13.58 10.3927 13.5339 10.4281 13.5059 10.4766Z" fill="#CFCFCF"/>
<path d="M14.2031 7.875C14.2031 7.93094 14.2253 7.9846 14.2649 8.02416C14.3045 8.06371 14.3581 8.08594 14.4141 8.08594H15.5391C15.595 8.08594 15.6487 8.06371 15.6882 8.02416C15.7278 7.9846 15.75 7.93094 15.75 7.875C15.75 7.81906 15.7278 7.7654 15.6882 7.72584C15.6487 7.68629 15.595 7.66406 15.5391 7.66406H14.4141C14.3581 7.66406 14.3045 7.68629 14.2649 7.72584C14.2253 7.7654 14.2031 7.81906 14.2031 7.875Z" fill="#CFCFCF"/>
<path d="M9.77344 15.75C9.77344 15.8059 9.75121 15.8596 9.71166 15.8992C9.6721 15.9387 9.61844 15.9609 9.5625 15.9609C9.50656 15.9609 9.4529 15.9387 9.41334 15.8992C9.37379 15.8596 9.35156 15.8059 9.35156 15.75V15.0469H8.64844V15.75C8.64844 15.8059 8.62621 15.8596 8.58666 15.8992C8.5471 15.9387 8.49344 15.9609 8.4375 15.9609C8.38156 15.9609 8.3279 15.9387 8.28834 15.8992C8.24879 15.8596 8.22656 15.8059 8.22656 15.75V15.0469H7.3125V15.75C7.3125 16.0484 7.43103 16.3345 7.64201 16.5455C7.85298 16.7565 8.13913 16.875 8.4375 16.875H9.5625C9.86087 16.875 10.147 16.7565 10.358 16.5455C10.569 16.3345 10.6875 16.0484 10.6875 15.75V15.0469H9.77344V15.75Z" fill="#CFCFCF"/>
</svg>
