<svg width="18" height="18" viewBox="0 0 18 18" fill="none" xmlns="http://www.w3.org/2000/svg">
<path d="M4.15451 13.721C4.36044 13.9503 4.65576 14.0818 4.96465 14.0818C5.23417 14.0818 5.49306 13.9822 5.69339 13.8018C6.13985 13.4001 6.17603 12.7094 5.77428 12.2624L2.83777 8.99996L5.77428 5.73702C6.17603 5.29056 6.13985 4.59986 5.69339 4.19811C5.4771 4.00338 5.19612 3.90224 4.90718 3.91982C4.61611 3.93523 4.34898 4.06243 4.15451 4.27845L0.561607 8.27099C0.187798 8.68654 0.187798 9.31338 0.561607 9.72953L4.15451 13.721Z" fill="#CFCFCF"/>
<path d="M13.8455 4.27845C13.4438 3.83254 12.7539 3.79584 12.3066 4.19811C11.8602 4.59987 11.824 5.29057 12.2257 5.73754L15.1623 8.99997L12.2257 12.2629C11.824 12.7094 11.8602 13.4001 12.3066 13.8024C12.507 13.9822 12.7659 14.0818 13.0354 14.0818C13.3443 14.0818 13.6396 13.9503 13.8455 13.7215L17.4384 9.72898C17.8122 9.31339 17.8122 8.68655 17.4384 8.27099L13.8455 4.27845Z" fill="#CFCFCF"/>
<path d="M10.9092 1.22408L10.9082 1.22357C10.3242 1.08201 9.73376 1.4412 9.59118 2.02279L6.29254 15.4578C6.14913 16.041 6.50725 16.6322 7.09124 16.7759C7.17614 16.7966 7.26366 16.8073 7.35121 16.8073C7.85407 16.8073 8.28906 16.4662 8.40878 15.9772L11.7074 2.54217C11.8508 1.95893 11.4927 1.36776 10.9092 1.22408Z" fill="#CFCFCF"/>
</svg>
