<svg width="15" height="16" viewBox="0 0 15 16" fill="none" xmlns="http://www.w3.org/2000/svg">
<path d="M9.81613 9.64793L8.00357 8.28852V5.51937C8.00357 5.24093 7.77851 5.01587 7.50008 5.01587C7.22164 5.01587 6.99658 5.24093 6.99658 5.51937V8.54029C6.99658 8.69888 7.0711 8.84843 7.19798 8.94309L9.21191 10.4536C9.30253 10.5215 9.40828 10.5543 9.5135 10.5543C9.66707 10.5543 9.81811 10.4853 9.91681 10.3523C10.084 10.1303 10.0387 9.8146 9.81613 9.64793Z" fill="#0064B3"/>
<path d="M7.5 2C3.91568 2 1 4.91568 1 8.5C1 12.0843 3.91568 15 7.5 15C11.0843 15 14 12.0843 14 8.5C14 4.91568 11.0843 2 7.5 2ZM7.5 13.993C4.47153 13.993 2.00697 11.5285 2.00697 8.5C2.00697 5.47153 4.47153 3.00697 7.5 3.00697C10.529 3.00697 12.993 5.47153 12.993 8.5C12.993 11.5285 10.5285 13.993 7.5 13.993Z" fill="#0064B3"/>
</svg>
