<svg width="18" height="18" viewBox="0 0 18 18" fill="none" xmlns="http://www.w3.org/2000/svg">
<path fill-rule="evenodd" clip-rule="evenodd" d="M9.20483 2.42624C7.92563 2.38363 6.63323 2.73263 5.51743 3.47743C4.26423 4.31483 3.38843 5.55143 2.98503 6.93383C2.87363 6.92023 2.74023 6.92623 2.58183 6.97103C1.99043 7.13883 1.54563 7.62343 1.34563 8.05023C1.08623 8.60643 0.976831 9.34204 1.09223 10.1014C1.20683 10.8584 1.52663 11.4824 1.92663 11.8698C2.32783 12.2574 2.78083 12.3834 3.23083 12.2888C3.90083 12.1458 4.23303 12.0388 4.13923 11.4146L3.68503 8.38883C3.77663 6.75124 4.62443 5.20964 6.04243 4.26164C7.94043 2.99383 10.4288 3.07503 12.2392 4.46483C13.4986 5.43043 14.2298 6.87723 14.3142 8.39603L13.9966 10.5126C13.2882 12.4512 11.532 13.794 9.49983 13.9846H8.14663C7.79743 13.9846 7.51623 14.2658 7.51623 14.6146V14.947C7.51623 15.296 7.79743 15.5772 8.14663 15.5772H9.85283C10.2018 15.5772 10.4818 15.296 10.4818 14.947V14.7732C12.0142 14.3992 13.3518 13.4574 14.2228 12.144L14.7694 12.289C15.2142 12.4044 15.6726 12.2574 16.0736 11.87C16.4736 11.4824 16.7932 10.8586 16.908 10.1016C17.0238 9.34224 16.9112 8.60783 16.6548 8.05043C16.3974 7.49303 16.014 7.13904 15.5714 7.01203C15.386 6.95863 15.1848 6.93903 15.0122 6.93383C14.6474 5.68383 13.8964 4.54704 12.814 3.71704C11.7498 2.90044 10.484 2.46824 9.20483 2.42624Z" fill="#CFCFCF"/>
<path fill-rule="evenodd" clip-rule="evenodd" d="M11.2018 7.86984C11.6528 7.86984 12.0184 8.23544 12.0194 8.68764C12.0184 9.13864 11.6528 9.50524 11.2018 9.50524C10.7496 9.50524 10.383 9.13864 10.383 8.68764C10.383 8.23564 10.7498 7.86984 11.2018 7.86984ZM8.99983 7.86984C9.45183 7.86984 9.81743 8.23544 9.81743 8.68764C9.81743 9.13864 9.45183 9.50524 8.99983 9.50524C8.54743 9.50524 8.18183 9.13864 8.18183 8.68764C8.18183 8.23564 8.54743 7.86984 8.99983 7.86984ZM6.79863 7.86984C7.24963 7.86984 7.61623 8.23544 7.61623 8.68764C7.61623 9.13864 7.24963 9.50524 6.79863 9.50524C6.34663 9.50524 5.98083 9.13864 5.98083 8.68764C5.98083 8.23564 6.34663 7.86984 6.79863 7.86984ZM8.99983 4.35744C6.60183 4.35744 4.66943 6.22624 4.66943 8.68764C4.66943 9.86984 5.11643 10.9146 5.84463 11.6812L5.58623 12.8396C5.50103 13.2208 5.76543 13.4772 6.10803 13.2864L7.23923 12.6554C7.77683 12.8888 8.37143 13.0178 8.99983 13.0178C11.3986 13.0178 13.3298 11.1502 13.3298 8.68764C13.3298 6.22624 11.3986 4.35744 8.99983 4.35744Z" fill="#CFCFCF"/>
</svg>
