<svg width="150" height="150" viewBox="0 0 150 150" fill="none" xmlns="http://www.w3.org/2000/svg">
<g clip-path="url(#clip0_44_1104)">
<path d="M105.882 0V44.1176H150V0H105.882ZM141.176 35.2941H114.706V8.82353H141.176V35.2941Z" fill="white"/>
<path d="M123.529 17.647H132.353V26.4705H123.529V17.647Z" fill="white"/>
<path d="M105.882 150H150V105.882H105.882V150ZM114.706 114.706H141.176V141.176H114.706V114.706Z" fill="white"/>
<path d="M123.529 123.529H132.353V132.353H123.529V123.529Z" fill="white"/>
<path d="M0 150H44.1176V105.882H0V150ZM8.82353 114.706H35.2941V141.176H8.82353V114.706Z" fill="white"/>
<path d="M17.647 123.529H26.4705V132.353H17.647V123.529Z" fill="white"/>
<path d="M52.9412 141.177H75V150H52.9412V141.177Z" fill="white"/>
<path d="M52.9412 123.529H66.1765V132.353H52.9412V123.529Z" fill="white"/>
<path d="M26.4707 88.2354H35.2942V97.0589H26.4707V88.2354Z" fill="white"/>
<path d="M17.6471 88.2352H8.82353V70.5881H0V97.0587H17.6471V88.2352Z" fill="white"/>
<path d="M141.177 88.2352H132.353V97.0587H150V70.5881H141.177V88.2352Z" fill="white"/>
<path d="M105.882 88.2354H123.529V97.0589H105.882V88.2354Z" fill="white"/>
<path d="M75 88.2354H97.0588V97.0589H75V88.2354Z" fill="white"/>
<path d="M83.8235 141.177H97.0588V150H83.8235V141.177Z" fill="white"/>
<path d="M88.2353 123.529H75V132.353H97.0588V105.882H88.2353V123.529Z" fill="white"/>
<path d="M52.9412 114.706H75V105.882H61.7647V88.2354H44.1179V97.0589H52.9412V114.706Z" fill="white"/>
<path d="M83.8235 17.647H97.0588V26.4705H83.8235V17.647Z" fill="white"/>
<path d="M105.882 52.9412H114.706V61.7647H105.882V52.9412Z" fill="white"/>
<path d="M105.882 70.5881H114.706V79.4117H105.882V70.5881Z" fill="white"/>
<path d="M123.529 79.4118H132.353V61.7647H150V52.9412H123.529V79.4118Z" fill="white"/>
<path d="M75 44.1177H88.2353V79.4118H97.0588V35.2942H75V44.1177Z" fill="white"/>
<path d="M35.2942 79.4117H75.0001V70.5882H44.1177V61.7646H35.2942V79.4117Z" fill="white"/>
<path d="M17.6471 79.4118H26.4706V52.9412H0V61.7647H17.6471V79.4118Z" fill="white"/>
<path d="M35.2942 35.2942H44.1177V52.9412H35.2942V35.2942Z" fill="white"/>
<path d="M52.9412 52.9412H75V61.7647H52.9412V52.9412Z" fill="white"/>
<path d="M61.7647 26.4705H75V17.647H52.9412V44.1176H61.7647V26.4705Z" fill="white"/>
<path d="M75 0H97.0588V8.82353H75V0Z" fill="white"/>
<path d="M8.82353 8.82353H26.4706V0H0V26.4706H8.82353V8.82353Z" fill="white"/>
<path d="M52.9412 0H66.1765V8.82353H52.9412V0Z" fill="white"/>
<path d="M17.647 26.4706H44.1176V0H35.294V17.6471H17.647V26.4706Z" fill="white"/>
<path d="M0 35.2942H26.4706V44.1177H0V35.2942Z" fill="white"/>
</g>
<defs>
<clipPath id="clip0_44_1104">
<rect width="150" height="150" fill="white"/>
</clipPath>
</defs>
</svg>
